<svg xmlns="http://www.w3.org/2000/svg" width="69.237" height="56.006" viewBox="0 0 69.237 56.006">
  <g id="logo" transform="translate(-1869.15 -1076.164)">
    <path id="パス_1" data-name="パス 1" d="M2024.529,1120.309h-1.014v-.6h2.762v.6h-1.015v2.572h-.733Z" transform="translate(-91.859 -25.926)"/>
    <path id="パス_2" data-name="パス 2" d="M2034.338,1122.881l0-1.9-.932,1.567h-.331l-.928-1.526v1.861h-.688v-3.17h.607l1.186,1.97,1.168-1.97h.6l.009,3.17Z" transform="translate(-96.639 -25.926)"/>
    <path id="パス_3" data-name="パス 3" d="M1925.63,1107.63c-1.949-1.116-4.695-1.023-7.321-1.243-3.569-.3-6.915-.664-7.714-.658-1.8.013-4.389-.682-4.489-2.769s5.174-7.352,7.667-8.893,4.933-3.373,6.178-1.937,1.378,1.523,1.337,2.053-.639.927-.042,1.623a1.007,1.007,0,0,0,1.195.4s7.385-2.723,6.313-5.258c-.634-1.5-1.148-1.048-2.029-1.746-1.969-1.559-5.162-3.1-7.421-2.831a17.374,17.374,0,0,0-6.624,1.688c-5.2,2.6-11.057,7.5-12.551,10.035a11.879,11.879,0,0,0-1.355,3.487l-1.574-4.479a3.5,3.5,0,0,1-.1-.6,1.328,1.328,0,0,1,.225-.627l10.539-19.707h-7.952l-5.378,10.858a3.8,3.8,0,0,0-.385.758c-.013.161,0,.745,0,.745s0,.394-.158.359a7.686,7.686,0,0,1-.481-.9c-1.228-2.463-4.595-9.717-5.568-11.818l-9.9,0,9.956,21.541a1.057,1.057,0,0,1,.119.487c-.019.223-.018.166-.224.443-.969,1.3-3.731,5.055-3.769,5.607a2.059,2.059,0,0,0,.24,1.136l-15.221,26.792h5.522l15.75-26.047s.192-.53.591-.58.6.6.6.6l6.306,10.527s.164.226.226.238a2.482,2.482,0,0,0,.454-.138s.349-.222.454-.2.158.091.287.312c.76,1.295,3.391,6.05,4.067,7.273l-.238.092c-.747.282-2.147.925-2.84,1.142-1.421.448-2.637.338-3.785.944-2.693,1.423-2.71,2.567-2.266,3.4s3.568,1.746,8.542.745c3.807-.767,7.749-2.643,11.406-4.372a36.825,36.825,0,0,0,6.524-3.676,17.11,17.11,0,0,0,6.225-5.515,7.57,7.57,0,0,0,.948-5.613A5.625,5.625,0,0,0,1925.63,1107.63Zm-5.777,4.868a2.813,2.813,0,0,1-.424,1.242c-1.7,2.342-7.8,6.259-10.833,8-.5.289-1.325.719-2.321,1.187l-4.872-13.863a4.43,4.43,0,0,0,1.192.406c3.7.671,9.478.2,11.281.248C1917.361,1109.816,1919.95,1110.908,1919.852,1112.5Z" transform="translate(-0.001)"/>
  </g>
</svg>
